<?xml version="1.0" encoding="utf-8" ?>
<svg baseProfile="full" height="57.5mm" version="1.1" viewBox="0,0,306.20000000000005,57.5" width="306.20000000000005mm" xmlns="http://www.w3.org/2000/svg" xmlns:ev="http://www.w3.org/2001/xml-events" xmlns:xlink="http://www.w3.org/1999/xlink"><defs /><rect fill="#FFFFFF" height="57.5" width="306.20000000000005" x="0" y="0" /><text fill="#000000" style="font-size:6px; font-family:Arial; font-weight:bold;" x="10" y="10" /><text fill="#000000" style="font-size:3px; font-family:Arial;" x="10" y="14.4">2024: 273 hours</text><text fill="#000000" style="font-size:2.5px; font-family:Arial" x="10" y="18.3">Jan</text><rect fill="#66be6b" height="4" rx="1" ry="1" width="4" x="10" y="19.7"><title>2024-01-01 52.95 mins</title></rect><rect fill="#549F57" height="4" rx="1" ry="1" width="4" x="10" y="25.1"><title>2024-01-02 100.15 mins</title></rect><rect fill="#67bf6c" height="4" rx="1" ry="1" width="4" x="10" y="30.5"><title>2024-01-03 44.33 mins</title></rect><rect fill="#a5e4a7" height="4" rx="1" ry="1" width="4" x="10" y="35.9"><title>2024-01-04 37.5 mins</title></rect><rect fill="#a3e3a6" height="4" rx="1" ry="1" width="4" x="10" y="41.300000000000004"><title>2024-01-05 42.9 mins</title></rect><rect fill="#549F57" height="4" rx="1" ry="1" width="4" x="10" y="46.699999999999996"><title>2024-01-06 126.15 mins</title></rect><rect fill="#66be6b" height="4" rx="1" ry="1" width="4" x="10" y="52.1"><title>2024-01-07 66.27 mins</title></rect><rect fill="#a6e4a8" height="4" rx="1" ry="1" width="4" x="15.4" y="19.7"><title>2024-01-08 30.88 mins</title></rect><rect fill="#66be6b" height="4" rx="1" ry="1" width="4" x="15.4" y="25.1"><title>2024-01-09 61.02 mins</title></rect><rect fill="#65bd6a" height="4" rx="1" ry="1" width="4" x="15.4" y="30.5"><title>2024-01-10 80.33 mins</title></rect><rect fill="#abe7ad" height="4" rx="1" ry="1" width="4" x="15.4" y="35.9"><title>2024-01-11 3.17 mins</title></rect><rect fill="#a7e5a9" height="4" rx="1" ry="1" width="4" x="15.4" y="41.300000000000004"><title>2024-01-12 27.42 mins</title></rect><rect fill="#abe7ad" height="4" rx="1" ry="1" width="4" x="15.4" y="46.699999999999996"><title>2024-01-13 4.0 mins</title></rect><rect fill="#ace7ae" height="4" rx="1" ry="1" width="4" x="15.4" y="52.1"><title>2024-01-14 1.37 mins</title></rect><rect fill="#a4e3a6" height="4" rx="1" ry="1" width="4" x="20.8" y="19.7"><title>2024-01-15 40.95 mins</title></rect><rect fill="#abe7ad" height="4" rx="1" ry="1" width="4" x="20.8" y="25.1"><title>2024-01-16 2.72 mins</title></rect><rect fill="#a9e6ab" height="4" rx="1" ry="1" width="4" x="20.8" y="30.5"><title>2024-01-17 13.58 mins</title></rect><rect fill="#a5e4a7" height="4" rx="1" ry="1" width="4" x="20.8" y="35.9"><title>2024-01-18 35.58 mins</title></rect><rect fill="#abe7ad" height="4" rx="1" ry="1" width="4" x="20.8" y="41.300000000000004"><title>2024-01-19 4.5 mins</title></rect><rect fill="#a8e5aa" height="4" rx="1" ry="1" width="4" x="20.8" y="46.699999999999996"><title>2024-01-20 19.42 mins</title></rect><rect fill="#67bf6c" height="4" rx="1" ry="1" width="4" x="20.8" y="52.1"><title>2024-01-21 43.68 mins</title></rect><rect fill="#a9e6ab" height="4" rx="1" ry="1" width="4" x="26.200000000000003" y="19.7"><title>2024-01-22 15.45 mins</title></rect><rect fill="#a5e4a7" height="4" rx="1" ry="1" width="4" x="26.200000000000003" y="25.1"><title>2024-01-23 36.65 mins</title></rect><rect fill="#a9e6ab" height="4" rx="1" ry="1" width="4" x="26.200000000000003" y="30.5"><title>2024-01-24 13.07 mins</title></rect><rect fill="#a5e4a7" height="4" rx="1" ry="1" width="4" x="26.200000000000003" y="35.9"><title>2024-01-25 36.65 mins</title></rect><rect fill="#a5e4a8" height="4" rx="1" ry="1" width="4" x="26.200000000000003" y="41.300000000000004"><title>2024-01-26 32.68 mins</title></rect><rect fill="#aae6ac" height="4" rx="1" ry="1" width="4" x="26.200000000000003" y="46.699999999999996"><title>2024-01-27 11.82 mins</title></rect><rect fill="#EBEDF0" height="4" rx="1" ry="1" width="4" x="26.200000000000003" y="52.1"><title>2024-01-28</title></rect><rect fill="#aae6ac" height="4" rx="1" ry="1" width="4" x="31.6" y="19.7"><title>2024-01-29 10.05 mins</title></rect><rect fill="#a7e5a9" height="4" rx="1" ry="1" width="4" x="31.6" y="25.1"><title>2024-01-30 25.85 mins</title></rect><rect fill="#a8e5aa" height="4" rx="1" ry="1" width="4" x="31.6" y="30.5"><title>2024-01-31 19.38 mins</title></rect><rect fill="#a9e6ab" height="4" rx="1" ry="1" width="4" x="31.6" y="35.9"><title>2024-02-01 14.9 mins</title></rect><rect fill="#a4e4a7" height="4" rx="1" ry="1" width="4" x="31.6" y="41.300000000000004"><title>2024-02-02 37.87 mins</title></rect><rect fill="#65bd6a" height="4" rx="1" ry="1" width="4" x="31.6" y="46.699999999999996"><title>2024-02-03 80.25 mins</title></rect><rect fill="#a8e5aa" height="4" rx="1" ry="1" width="4" x="31.6" y="52.1"><title>2024-02-04 17.88 mins</title></rect><text fill="#000000" style="font-size:2.5px; font-family:Arial" x="37.0" y="18.3">Feb</text><rect fill="#65bd6a" height="4" rx="1" ry="1" width="4" x="37.0" y="19.7"><title>2024-02-05 71.22 mins</title></rect><rect fill="#ace7ae" height="4" rx="1" ry="1" width="4" x="37.0" y="25.1"><title>2024-02-06 0.1 mins</title></rect><rect fill="#a8e5aa" height="4" rx="1" ry="1" width="4" x="37.0" y="30.5"><title>2024-02-07 20.02 mins</title></rect><rect fill="#a8e5aa" height="4" rx="1" ry="1" width="4" x="37.0" y="35.9"><title>2024-02-08 21.88 mins</title></rect><rect fill="#549F57" height="4" rx="1" ry="1" width="4" x="37.0" y="41.300000000000004"><title>2024-02-09 135.32 mins</title></rect><rect fill="#549F57" height="4" rx="1" ry="1" width="4" x="37.0" y="46.699999999999996"><title>2024-02-10 136.73 mins</title></rect><rect fill="#549F57" height="4" rx="1" ry="1" width="4" x="37.0" y="52.1"><title>2024-02-11 241.98 mins</title></rect><rect fill="#549F57" height="4" rx="1" ry="1" width="4" x="42.4" y="19.7"><title>2024-02-12 219.47 mins</title></rect><rect fill="#67bf6b" height="4" rx="1" ry="1" width="4" x="42.4" y="25.1"><title>2024-02-13 49.48 mins</title></rect><rect fill="#a6e4a8" height="4" rx="1" ry="1" width="4" x="42.4" y="30.5"><title>2024-02-14 28.47 mins</title></rect><rect fill="#65bd6a" height="4" rx="1" ry="1" width="4" x="42.4" y="35.9"><title>2024-02-15 80.37 mins</title></rect><rect fill="#66be6b" height="4" rx="1" ry="1" width="4" x="42.4" y="41.300000000000004"><title>2024-02-16 52.92 mins</title></rect><rect fill="#66be6a" height="4" rx="1" ry="1" width="4" x="42.4" y="46.699999999999996"><title>2024-02-17 69.32 mins</title></rect><rect fill="#a5e4a7" height="4" rx="1" ry="1" width="4" x="42.4" y="52.1"><title>2024-02-18 36.02 mins</title></rect><rect fill="#65bd6a" height="4" rx="1" ry="1" width="4" x="47.8" y="19.7"><title>2024-02-19 80.07 mins</title></rect><rect fill="#a5e4a7" height="4" rx="1" ry="1" width="4" x="47.8" y="25.1"><title>2024-02-20 35.23 mins</title></rect><rect fill="#a7e5a9" height="4" rx="1" ry="1" width="4" x="47.8" y="30.5"><title>2024-02-21 25.85 mins</title></rect><rect fill="#a5e4a7" height="4" rx="1" ry="1" width="4" x="47.8" y="35.9"><title>2024-02-22 33.52 mins</title></rect><rect fill="#a7e5a9" height="4" rx="1" ry="1" width="4" x="47.8" y="41.300000000000004"><title>2024-02-23 26.1 mins</title></rect><rect fill="#549F57" height="4" rx="1" ry="1" width="4" x="47.8" y="46.699999999999996"><title>2024-02-24 151.4 mins</title></rect><rect fill="#549F57" height="4" rx="1" ry="1" width="4" x="47.8" y="52.1"><title>2024-02-25 103.8 mins</title></rect><rect fill="#a7e5a9" height="4" rx="1" ry="1" width="4" x="53.199999999999996" y="19.7"><title>2024-02-26 27.17 mins</title></rect><rect fill="#a6e4a8" height="4" rx="1" ry="1" width="4" x="53.199999999999996" y="25.1"><title>2024-02-27 30.45 mins</title></rect><rect fill="#a8e5aa" height="4" rx="1" ry="1" width="4" x="53.199999999999996" y="30.5"><title>2024-02-28 21.6 mins</title></rect><rect fill="#a6e4a8" height="4" rx="1" ry="1" width="4" x="53.199999999999996" y="35.9"><title>2024-02-29 28.57 mins</title></rect><rect fill="#549F57" height="4" rx="1" ry="1" width="4" x="53.199999999999996" y="41.300000000000004"><title>2024-03-01 95.43 mins</title></rect><rect fill="#aae6ac" height="4" rx="1" ry="1" width="4" x="53.199999999999996" y="46.699999999999996"><title>2024-03-02 7.87 mins</title></rect><rect fill="#ace7ae" height="4" rx="1" ry="1" width="4" x="53.199999999999996" y="52.1"><title>2024-03-03 0.58 mins</title></rect><text fill="#000000" style="font-size:2.5px; font-family:Arial" x="58.599999999999994" y="18.3">Mar</text><rect fill="#aae6ac" height="4" rx="1" ry="1" width="4" x="58.599999999999994" y="19.7"><title>2024-03-04 11.65 mins</title></rect><rect fill="#a7e5a9" height="4" rx="1" ry="1" width="4" x="58.599999999999994" y="25.1"><title>2024-03-05 24.03 mins</title></rect><rect fill="#aae6ac" height="4" rx="1" ry="1" width="4" x="58.599999999999994" y="30.5"><title>2024-03-06 10.35 mins</title></rect><rect fill="#a7e5a9" height="4" rx="1" ry="1" width="4" x="58.599999999999994" y="35.9"><title>2024-03-07 23.52 mins</title></rect><rect fill="#abe6ad" height="4" rx="1" ry="1" width="4" x="58.599999999999994" y="41.300000000000004"><title>2024-03-08 7.42 mins</title></rect><rect fill="#ace7ae" height="4" rx="1" ry="1" width="4" x="58.599999999999994" y="46.699999999999996"><title>2024-03-09 1.42 mins</title></rect><rect fill="#a8e5aa" height="4" rx="1" ry="1" width="4" x="58.599999999999994" y="52.1"><title>2024-03-10 19.13 mins</title></rect><rect fill="#a6e4a8" height="4" rx="1" ry="1" width="4" x="63.99999999999999" y="19.7"><title>2024-03-11 29.02 mins</title></rect><rect fill="#a6e4a8" height="4" rx="1" ry="1" width="4" x="63.99999999999999" y="25.1"><title>2024-03-12 29.33 mins</title></rect><rect fill="#a4e3a6" height="4" rx="1" ry="1" width="4" x="63.99999999999999" y="30.5"><title>2024-03-13 39.9 mins</title></rect><rect fill="#aae6ac" height="4" rx="1" ry="1" width="4" x="63.99999999999999" y="35.9"><title>2024-03-14 10.78 mins</title></rect><rect fill="#aae6ac" height="4" rx="1" ry="1" width="4" x="63.99999999999999" y="41.300000000000004"><title>2024-03-15 12.0 mins</title></rect><rect fill="#65bd6a" height="4" rx="1" ry="1" width="4" x="63.99999999999999" y="46.699999999999996"><title>2024-03-16 80.55 mins</title></rect><rect fill="#EBEDF0" height="4" rx="1" ry="1" width="4" x="63.99999999999999" y="52.1"><title>2024-03-17</title></rect><rect fill="#a9e6ab" height="4" rx="1" ry="1" width="4" x="69.39999999999999" y="19.7"><title>2024-03-18 16.07 mins</title></rect><rect fill="#a5e4a7" height="4" rx="1" ry="1" width="4" x="69.39999999999999" y="25.1"><title>2024-03-19 33.72 mins</title></rect><rect fill="#aae6ac" height="4" rx="1" ry="1" width="4" x="69.39999999999999" y="30.5"><title>2024-03-20 9.6 mins</title></rect><rect fill="#a5e4a7" height="4" rx="1" ry="1" width="4" x="69.39999999999999" y="35.9"><title>2024-03-21 33.72 mins</title></rect><rect fill="#aae6ac" height="4" rx="1" ry="1" width="4" x="69.39999999999999" y="41.300000000000004"><title>2024-03-22 8.15 mins</title></rect><rect fill="#ace7ae" height="4" rx="1" ry="1" width="4" x="69.39999999999999" y="46.699999999999996"><title>2024-03-23 0.57 mins</title></rect><rect fill="#a8e5aa" height="4" rx="1" ry="1" width="4" x="69.39999999999999" y="52.1"><title>2024-03-24 17.95 mins</title></rect><rect fill="#65bd6a" height="4" rx="1" ry="1" width="4" x="74.8" y="19.7"><title>2024-03-25 77.72 mins</title></rect><rect fill="#a4e3a6" height="4" rx="1" ry="1" width="4" x="74.8" y="25.1"><title>2024-03-26 39.1 mins</title></rect><rect fill="#66be6b" height="4" rx="1" ry="1" width="4" x="74.8" y="30.5"><title>2024-03-27 62.37 mins</title></rect><rect fill="#67bf6c" height="4" rx="1" ry="1" width="4" x="74.8" y="35.9"><title>2024-03-28 46.37 mins</title></rect><rect fill="#a9e6ab" height="4" rx="1" ry="1" width="4" x="74.8" y="41.300000000000004"><title>2024-03-29 13.4 mins</title></rect><rect fill="#a8e5aa" height="4" rx="1" ry="1" width="4" x="74.8" y="46.699999999999996"><title>2024-03-30 22.05 mins</title></rect><rect fill="#a8e5aa" height="4" rx="1" ry="1" width="4" x="74.8" y="52.1"><title>2024-03-31 20.8 mins</title></rect><text fill="#000000" style="font-size:2.5px; font-family:Arial" x="80.2" y="18.3">Apr</text><rect fill="#65bd6a" height="4" rx="1" ry="1" width="4" x="80.2" y="19.7"><title>2024-04-01 79.43 mins</title></rect><rect fill="#a5e4a7" height="4" rx="1" ry="1" width="4" x="80.2" y="25.1"><title>2024-04-02 35.32 mins</title></rect><rect fill="#a4e3a6" height="4" rx="1" ry="1" width="4" x="80.2" y="30.5"><title>2024-04-03 40.12 mins</title></rect><rect fill="#549F57" height="4" rx="1" ry="1" width="4" x="80.2" y="35.9"><title>2024-04-04 93.7 mins</title></rect><rect fill="#549F57" height="4" rx="1" ry="1" width="4" x="80.2" y="41.300000000000004"><title>2024-04-05 169.32 mins</title></rect><rect fill="#66be6b" height="4" rx="1" ry="1" width="4" x="80.2" y="46.699999999999996"><title>2024-04-06 53.9 mins</title></rect><rect fill="#65bd6a" height="4" rx="1" ry="1" width="4" x="80.2" y="52.1"><title>2024-04-07 77.25 mins</title></rect><rect fill="#a9e6ab" height="4" rx="1" ry="1" width="4" x="85.60000000000001" y="19.7"><title>2024-04-08 14.95 mins</title></rect><rect fill="#a7e5a9" height="4" rx="1" ry="1" width="4" x="85.60000000000001" y="25.1"><title>2024-04-09 26.5 mins</title></rect><rect fill="#a5e4a8" height="4" rx="1" ry="1" width="4" x="85.60000000000001" y="30.5"><title>2024-04-10 33.05 mins</title></rect><rect fill="#a5e4a7" height="4" rx="1" ry="1" width="4" x="85.60000000000001" y="35.9"><title>2024-04-11 33.85 mins</title></rect><rect fill="#a8e5aa" height="4" rx="1" ry="1" width="4" x="85.60000000000001" y="41.300000000000004"><title>2024-04-12 21.12 mins</title></rect><rect fill="#66be6b" height="4" rx="1" ry="1" width="4" x="85.60000000000001" y="46.699999999999996"><title>2024-04-13 58.6 mins</title></rect><rect fill="#67bf6b" height="4" rx="1" ry="1" width="4" x="85.60000000000001" y="52.1"><title>2024-04-14 48.12 mins</title></rect><rect fill="#549F57" height="4" rx="1" ry="1" width="4" x="91.00000000000001" y="19.7"><title>2024-04-15 115.4 mins</title></rect><rect fill="#a8e5aa" height="4" rx="1" ry="1" width="4" x="91.00000000000001" y="25.1"><title>2024-04-16 18.77 mins</title></rect><rect fill="#a7e5a9" height="4" rx="1" ry="1" width="4" x="91.00000000000001" y="30.5"><title>2024-04-17 24.13 mins</title></rect><rect fill="#a9e6ab" height="4" rx="1" ry="1" width="4" x="91.00000000000001" y="35.9"><title>2024-04-18 14.32 mins</title></rect><rect fill="#abe7ad" height="4" rx="1" ry="1" width="4" x="91.00000000000001" y="41.300000000000004"><title>2024-04-19 5.38 mins</title></rect><rect fill="#a4e4a7" height="4" rx="1" ry="1" width="4" x="91.00000000000001" y="46.699999999999996"><title>2024-04-20 37.9 mins</title></rect><rect fill="#67bf6b" height="4" rx="1" ry="1" width="4" x="91.00000000000001" y="52.1"><title>2024-04-21 48.4 mins</title></rect><rect fill="#549F57" height="4" rx="1" ry="1" width="4" x="96.40000000000002" y="19.7"><title>2024-04-22 103.45 mins</title></rect><rect fill="#66be6b" height="4" rx="1" ry="1" width="4" x="96.40000000000002" y="25.1"><title>2024-04-23 52.43 mins</title></rect><rect fill="#a5e4a7" height="4" rx="1" ry="1" width="4" x="96.40000000000002" y="30.5"><title>2024-04-24 36.13 mins</title></rect><rect fill="#a7e5a9" height="4" rx="1" ry="1" width="4" x="96.40000000000002" y="35.9"><title>2024-04-25 25.78 mins</title></rect><rect fill="#67bf6c" height="4" rx="1" ry="1" width="4" x="96.40000000000002" y="41.300000000000004"><title>2024-04-26 45.88 mins</title></rect><rect fill="#549F57" height="4" rx="1" ry="1" width="4" x="96.40000000000002" y="46.699999999999996"><title>2024-04-27 205.03 mins</title></rect><rect fill="#549F57" height="4" rx="1" ry="1" width="4" x="96.40000000000002" y="52.1"><title>2024-04-28 103.58 mins</title></rect><rect fill="#549F57" height="4" rx="1" ry="1" width="4" x="101.80000000000003" y="19.7"><title>2024-04-29 112.78 mins</title></rect><rect fill="#66be6b" height="4" rx="1" ry="1" width="4" x="101.80000000000003" y="25.1"><title>2024-04-30 51.42 mins</title></rect><rect fill="#549F57" height="4" rx="1" ry="1" width="4" x="101.80000000000003" y="30.5"><title>2024-05-01 111.42 mins</title></rect><rect fill="#a8e5aa" height="4" rx="1" ry="1" width="4" x="101.80000000000003" y="35.9"><title>2024-05-02 19.42 mins</title></rect><rect fill="#549F57" height="4" rx="1" ry="1" width="4" x="101.80000000000003" y="41.300000000000004"><title>2024-05-03 166.02 mins</title></rect><rect fill="#ace7ae" height="4" rx="1" ry="1" width="4" x="101.80000000000003" y="46.699999999999996"><title>2024-05-04 0.32 mins</title></rect><rect fill="#549F57" height="4" rx="1" ry="1" width="4" x="101.80000000000003" y="52.1"><title>2024-05-05 100.03 mins</title></rect><text fill="#000000" style="font-size:2.5px; font-family:Arial" x="107.20000000000003" y="18.3">May</text><rect fill="#65bd6a" height="4" rx="1" ry="1" width="4" x="107.20000000000003" y="19.7"><title>2024-05-06 74.1 mins</title></rect><rect fill="#67bf6c" height="4" rx="1" ry="1" width="4" x="107.20000000000003" y="25.1"><title>2024-05-07 45.73 mins</title></rect><rect fill="#549F57" height="4" rx="1" ry="1" width="4" x="107.20000000000003" y="30.5"><title>2024-05-08 109.42 mins</title></rect><rect fill="#a4e3a6" height="4" rx="1" ry="1" width="4" x="107.20000000000003" y="35.9"><title>2024-05-09 40.03 mins</title></rect><rect fill="#a5e4a7" height="4" rx="1" ry="1" width="4" x="107.20000000000003" y="41.300000000000004"><title>2024-05-10 33.58 mins</title></rect><rect fill="#66be6b" height="4" rx="1" ry="1" width="4" x="107.20000000000003" y="46.699999999999996"><title>2024-05-11 66.7 mins</title></rect><rect fill="#a6e4a8" height="4" rx="1" ry="1" width="4" x="107.20000000000003" y="52.1"><title>2024-05-12 31.63 mins</title></rect><rect fill="#a5e4a7" height="4" rx="1" ry="1" width="4" x="112.60000000000004" y="19.7"><title>2024-05-13 33.67 mins</title></rect><rect fill="#a5e4a7" height="4" rx="1" ry="1" width="4" x="112.60000000000004" y="25.1"><title>2024-05-14 33.58 mins</title></rect><rect fill="#67bf6c" height="4" rx="1" ry="1" width="4" x="112.60000000000004" y="30.5"><title>2024-05-15 45.85 mins</title></rect><rect fill="#a5e4a7" height="4" rx="1" ry="1" width="4" x="112.60000000000004" y="35.9"><title>2024-05-16 36.2 mins</title></rect><rect fill="#a5e4a7" height="4" rx="1" ry="1" width="4" x="112.60000000000004" y="41.300000000000004"><title>2024-05-17 33.6 mins</title></rect><rect fill="#ace7ae" height="4" rx="1" ry="1" width="4" x="112.60000000000004" y="46.699999999999996"><title>2024-05-18 1.6 mins</title></rect><rect fill="#549F57" height="4" rx="1" ry="1" width="4" x="112.60000000000004" y="52.1"><title>2024-05-19 96.47 mins</title></rect><rect fill="#a7e5a9" height="4" rx="1" ry="1" width="4" x="118.00000000000004" y="19.7"><title>2024-05-20 25.37 mins</title></rect><rect fill="#66be6a" height="4" rx="1" ry="1" width="4" x="118.00000000000004" y="25.1"><title>2024-05-21 67.98 mins</title></rect><rect fill="#a5e4a7" height="4" rx="1" ry="1" width="4" x="118.00000000000004" y="30.5"><title>2024-05-22 37.38 mins</title></rect><rect fill="#67bf6c" height="4" rx="1" ry="1" width="4" x="118.00000000000004" y="35.9"><title>2024-05-23 45.07 mins</title></rect><rect fill="#a8e5ab" height="4" rx="1" ry="1" width="4" x="118.00000000000004" y="41.300000000000004"><title>2024-05-24 17.45 mins</title></rect><rect fill="#a5e4a7" height="4" rx="1" ry="1" width="4" x="118.00000000000004" y="46.699999999999996"><title>2024-05-25 35.68 mins</title></rect><rect fill="#549F57" height="4" rx="1" ry="1" width="4" x="118.00000000000004" y="52.1"><title>2024-05-26 143.52 mins</title></rect><rect fill="#65bd6a" height="4" rx="1" ry="1" width="4" x="123.40000000000005" y="19.7"><title>2024-05-27 81.45 mins</title></rect><rect fill="#549F57" height="4" rx="1" ry="1" width="4" x="123.40000000000005" y="25.1"><title>2024-05-28 133.48 mins</title></rect><rect fill="#65bd6a" height="4" rx="1" ry="1" width="4" x="123.40000000000005" y="30.5"><title>2024-05-29 84.38 mins</title></rect><rect fill="#549F57" height="4" rx="1" ry="1" width="4" x="123.40000000000005" y="35.9"><title>2024-05-30 94.88 mins</title></rect><rect fill="#67bf6c" height="4" rx="1" ry="1" width="4" x="123.40000000000005" y="41.300000000000004"><title>2024-05-31 43.97 mins</title></rect><rect fill="#67be6b" height="4" rx="1" ry="1" width="4" x="123.40000000000005" y="46.699999999999996"><title>2024-06-01 49.92 mins</title></rect><rect fill="#a5e4a7" height="4" rx="1" ry="1" width="4" x="123.40000000000005" y="52.1"><title>2024-06-02 34.75 mins</title></rect><text fill="#000000" style="font-size:2.5px; font-family:Arial" x="128.80000000000004" y="18.3">Jun</text><rect fill="#65bd6a" height="4" rx="1" ry="1" width="4" x="128.80000000000004" y="19.7"><title>2024-06-03 71.05 mins</title></rect><rect fill="#65bd6a" height="4" rx="1" ry="1" width="4" x="128.80000000000004" y="25.1"><title>2024-06-04 81.6 mins</title></rect><rect fill="#549F57" height="4" rx="1" ry="1" width="4" x="128.80000000000004" y="30.5"><title>2024-06-05 105.62 mins</title></rect><rect fill="#549F57" height="4" rx="1" ry="1" width="4" x="128.80000000000004" y="35.9"><title>2024-06-06 92.15 mins</title></rect><rect fill="#67bf6c" height="4" rx="1" ry="1" width="4" x="128.80000000000004" y="41.300000000000004"><title>2024-06-07 46.8 mins</title></rect><rect fill="#EBEDF0" height="4" rx="1" ry="1" width="4" x="128.80000000000004" y="46.699999999999996"><title>2024-06-08</title></rect><rect fill="#ace7ae" height="4" rx="1" ry="1" width="4" x="128.80000000000004" y="52.1"><title>2024-06-09 0.32 mins</title></rect><rect fill="#a6e4a8" height="4" rx="1" ry="1" width="4" x="134.20000000000005" y="19.7"><title>2024-06-10 31.77 mins</title></rect><rect fill="#a4e3a6" height="4" rx="1" ry="1" width="4" x="134.20000000000005" y="25.1"><title>2024-06-11 40.42 mins</title></rect><rect fill="#a5e4a7" height="4" rx="1" ry="1" width="4" x="134.20000000000005" y="30.5"><title>2024-06-12 34.07 mins</title></rect><rect fill="#a7e5a9" height="4" rx="1" ry="1" width="4" x="134.20000000000005" y="35.9"><title>2024-06-13 25.83 mins</title></rect><rect fill="#66be6b" height="4" rx="1" ry="1" width="4" x="134.20000000000005" y="41.300000000000004"><title>2024-06-14 55.1 mins</title></rect><rect fill="#66be6b" height="4" rx="1" ry="1" width="4" x="134.20000000000005" y="46.699999999999996"><title>2024-06-15 56.9 mins</title></rect><rect fill="#66be6b" height="4" rx="1" ry="1" width="4" x="134.20000000000005" y="52.1"><title>2024-06-16 57.32 mins</title></rect><rect fill="#65bd6a" height="4" rx="1" ry="1" width="4" x="139.60000000000005" y="19.7"><title>2024-06-17 84.23 mins</title></rect><rect fill="#a8e5aa" height="4" rx="1" ry="1" width="4" x="139.60000000000005" y="25.1"><title>2024-06-18 20.75 mins</title></rect><rect fill="#66be6b" height="4" rx="1" ry="1" width="4" x="139.60000000000005" y="30.5"><title>2024-06-19 64.7 mins</title></rect><rect fill="#a8e5aa" height="4" rx="1" ry="1" width="4" x="139.60000000000005" y="35.9"><title>2024-06-20 22.32 mins</title></rect><rect fill="#a7e5a9" height="4" rx="1" ry="1" width="4" x="139.60000000000005" y="41.300000000000004"><title>2024-06-21 23.07 mins</title></rect><rect fill="#66be6b" height="4" rx="1" ry="1" width="4" x="139.60000000000005" y="46.699999999999996"><title>2024-06-22 51.8 mins</title></rect><rect fill="#65bd6a" height="4" rx="1" ry="1" width="4" x="139.60000000000005" y="52.1"><title>2024-06-23 82.47 mins</title></rect><rect fill="#65bd6a" height="4" rx="1" ry="1" width="4" x="145.00000000000006" y="19.7"><title>2024-06-24 71.67 mins</title></rect><rect fill="#66be6b" height="4" rx="1" ry="1" width="4" x="145.00000000000006" y="25.1"><title>2024-06-25 59.83 mins</title></rect><rect fill="#65bd6a" height="4" rx="1" ry="1" width="4" x="145.00000000000006" y="30.5"><title>2024-06-26 78.15 mins</title></rect><rect fill="#a5e4a7" height="4" rx="1" ry="1" width="4" x="145.00000000000006" y="35.9"><title>2024-06-27 37.37 mins</title></rect><rect fill="#67bf6b" height="4" rx="1" ry="1" width="4" x="145.00000000000006" y="41.300000000000004"><title>2024-06-28 48.25 mins</title></rect><rect fill="#EBEDF0" height="4" rx="1" ry="1" width="4" x="145.00000000000006" y="46.699999999999996"><title>2024-06-29</title></rect><rect fill="#65bd6a" height="4" rx="1" ry="1" width="4" x="145.00000000000006" y="52.1"><title>2024-06-30 79.07 mins</title></rect><text fill="#000000" style="font-size:2.5px; font-family:Arial" x="150.40000000000006" y="18.3">Jul</text><rect fill="#549F57" height="4" rx="1" ry="1" width="4" x="150.40000000000006" y="19.7"><title>2024-07-01 114.92 mins</title></rect><rect fill="#67be6b" height="4" rx="1" ry="1" width="4" x="150.40000000000006" y="25.1"><title>2024-07-02 50.15 mins</title></rect><rect fill="#65bd6a" height="4" rx="1" ry="1" width="4" x="150.40000000000006" y="30.5"><title>2024-07-03 76.72 mins</title></rect><rect fill="#67bf6c" height="4" rx="1" ry="1" width="4" x="150.40000000000006" y="35.9"><title>2024-07-04 46.2 mins</title></rect><rect fill="#a6e4a8" height="4" rx="1" ry="1" width="4" x="150.40000000000006" y="41.300000000000004"><title>2024-07-05 28.62 mins</title></rect><rect fill="#ace7ae" height="4" rx="1" ry="1" width="4" x="150.40000000000006" y="46.699999999999996"><title>2024-07-06 1.02 mins</title></rect><rect fill="#aae6ac" height="4" rx="1" ry="1" width="4" x="150.40000000000006" y="52.1"><title>2024-07-07 10.5 mins</title></rect><rect fill="#67bf6c" height="4" rx="1" ry="1" width="4" x="155.80000000000007" y="19.7"><title>2024-07-08 46.57 mins</title></rect><rect fill="#a5e4a7" height="4" rx="1" ry="1" width="4" x="155.80000000000007" y="25.1"><title>2024-07-09 35.22 mins</title></rect><rect fill="#65bd6a" height="4" rx="1" ry="1" width="4" x="155.80000000000007" y="30.5"><title>2024-07-10 76.9 mins</title></rect><rect fill="#67bf6c" height="4" rx="1" ry="1" width="4" x="155.80000000000007" y="35.9"><title>2024-07-11 45.42 mins</title></rect><rect fill="#a6e4a8" height="4" rx="1" ry="1" width="4" x="155.80000000000007" y="41.300000000000004"><title>2024-07-12 29.72 mins</title></rect><rect fill="#aae6ac" height="4" rx="1" ry="1" width="4" x="155.80000000000007" y="46.699999999999996"><title>2024-07-13 10.47 mins</title></rect><rect fill="#a9e6ab" height="4" rx="1" ry="1" width="4" x="155.80000000000007" y="52.1"><title>2024-07-14 15.62 mins</title></rect><rect fill="#aae6ac" height="4" rx="1" ry="1" width="4" x="161.20000000000007" y="19.7"><title>2024-07-15 9.27 mins</title></rect><rect fill="#67bf6c" height="4" rx="1" ry="1" width="4" x="161.20000000000007" y="25.1"><title>2024-07-16 46.1 mins</title></rect><rect fill="#a8e5aa" height="4" rx="1" ry="1" width="4" x="161.20000000000007" y="30.5"><title>2024-07-17 18.55 mins</title></rect><rect fill="#66be6b" height="4" rx="1" ry="1" width="4" x="161.20000000000007" y="35.9"><title>2024-07-18 62.95 mins</title></rect><rect fill="#a5e4a7" height="4" rx="1" ry="1" width="4" x="161.20000000000007" y="41.300000000000004"><title>2024-07-19 36.5 mins</title></rect><rect fill="#a9e6ac" height="4" rx="1" ry="1" width="4" x="161.20000000000007" y="46.699999999999996"><title>2024-07-20 12.47 mins</title></rect><rect fill="#aae6ac" height="4" rx="1" ry="1" width="4" x="161.20000000000007" y="52.1"><title>2024-07-21 12.25 mins</title></rect><rect fill="#66be6b" height="4" rx="1" ry="1" width="4" x="166.60000000000008" y="19.7"><title>2024-07-22 65.38 mins</title></rect><rect fill="#a6e4a8" height="4" rx="1" ry="1" width="4" x="166.60000000000008" y="25.1"><title>2024-07-23 29.45 mins</title></rect><rect fill="#a6e4a8" height="4" rx="1" ry="1" width="4" x="166.60000000000008" y="30.5"><title>2024-07-24 29.02 mins</title></rect><rect fill="#a7e5a9" height="4" rx="1" ry="1" width="4" x="166.60000000000008" y="35.9"><title>2024-07-25 23.65 mins</title></rect><rect fill="#a8e5aa" height="4" rx="1" ry="1" width="4" x="166.60000000000008" y="41.300000000000004"><title>2024-07-26 21.65 mins</title></rect><rect fill="#a7e5a9" height="4" rx="1" ry="1" width="4" x="166.60000000000008" y="46.699999999999996"><title>2024-07-27 23.95 mins</title></rect><rect fill="#66be6b" height="4" rx="1" ry="1" width="4" x="166.60000000000008" y="52.1"><title>2024-07-28 58.35 mins</title></rect><rect fill="#549F57" height="4" rx="1" ry="1" width="4" x="172.00000000000009" y="19.7"><title>2024-07-29 126.82 mins</title></rect><rect fill="#66be6a" height="4" rx="1" ry="1" width="4" x="172.00000000000009" y="25.1"><title>2024-07-30 67.52 mins</title></rect><rect fill="#66be6b" height="4" rx="1" ry="1" width="4" x="172.00000000000009" y="30.5"><title>2024-07-31 51.62 mins</title></rect><rect fill="#a7e5a9" height="4" rx="1" ry="1" width="4" x="172.00000000000009" y="35.9"><title>2024-08-01 26.63 mins</title></rect><rect fill="#a8e5aa" height="4" rx="1" ry="1" width="4" x="172.00000000000009" y="41.300000000000004"><title>2024-08-02 21.48 mins</title></rect><rect fill="#a4e4a7" height="4" rx="1" ry="1" width="4" x="172.00000000000009" y="46.699999999999996"><title>2024-08-03 37.98 mins</title></rect><rect fill="#a4e4a7" height="4" rx="1" ry="1" width="4" x="172.00000000000009" y="52.1"><title>2024-08-04 37.75 mins</title></rect><text fill="#000000" style="font-size:2.5px; font-family:Arial" x="177.4000000000001" y="18.3">Aug</text><rect fill="#549F57" height="4" rx="1" ry="1" width="4" x="177.4000000000001" y="19.7"><title>2024-08-05 97.5 mins</title></rect><rect fill="#66be6b" height="4" rx="1" ry="1" width="4" x="177.4000000000001" y="25.1"><title>2024-08-06 52.1 mins</title></rect><rect fill="#66be6b" height="4" rx="1" ry="1" width="4" x="177.4000000000001" y="30.5"><title>2024-08-07 57.07 mins</title></rect><rect fill="#a8e5aa" height="4" rx="1" ry="1" width="4" x="177.4000000000001" y="35.9"><title>2024-08-08 21.28 mins</title></rect><rect fill="#a8e5aa" height="4" rx="1" ry="1" width="4" x="177.4000000000001" y="41.300000000000004"><title>2024-08-09 18.85 mins</title></rect><rect fill="#66be6b" height="4" rx="1" ry="1" width="4" x="177.4000000000001" y="46.699999999999996"><title>2024-08-10 55.27 mins</title></rect><rect fill="#abe7ad" height="4" rx="1" ry="1" width="4" x="177.4000000000001" y="52.1"><title>2024-08-11 2.8 mins</title></rect><rect fill="#abe6ad" height="4" rx="1" ry="1" width="4" x="182.8000000000001" y="19.7"><title>2024-08-12 5.88 mins</title></rect><rect fill="#a6e4a8" height="4" rx="1" ry="1" width="4" x="182.8000000000001" y="25.1"><title>2024-08-13 28.27 mins</title></rect><rect fill="#a6e4a9" height="4" rx="1" ry="1" width="4" x="182.8000000000001" y="30.5"><title>2024-08-14 28.08 mins</title></rect><rect fill="#a4e3a6" height="4" rx="1" ry="1" width="4" x="182.8000000000001" y="35.9"><title>2024-08-15 40.9 mins</title></rect><rect fill="#a5e4a8" height="4" rx="1" ry="1" width="4" x="182.8000000000001" y="41.300000000000004"><title>2024-08-16 32.63 mins</title></rect><rect fill="#a6e4a8" height="4" rx="1" ry="1" width="4" x="182.8000000000001" y="46.699999999999996"><title>2024-08-17 29.23 mins</title></rect><rect fill="#549F57" height="4" rx="1" ry="1" width="4" x="182.8000000000001" y="52.1"><title>2024-08-18 113.17 mins</title></rect><rect fill="#aae6ac" height="4" rx="1" ry="1" width="4" x="188.2000000000001" y="19.7"><title>2024-08-19 9.92 mins</title></rect><rect fill="#a7e5a9" height="4" rx="1" ry="1" width="4" x="188.2000000000001" y="25.1"><title>2024-08-20 24.72 mins</title></rect><rect fill="#a8e5aa" height="4" rx="1" ry="1" width="4" x="188.2000000000001" y="30.5"><title>2024-08-21 19.1 mins</title></rect><rect fill="#a9e6ab" height="4" rx="1" ry="1" width="4" x="188.2000000000001" y="35.9"><title>2024-08-22 15.77 mins</title></rect><rect fill="#66be6b" height="4" rx="1" ry="1" width="4" x="188.2000000000001" y="41.300000000000004"><title>2024-08-23 61.93 mins</title></rect><rect fill="#66be6b" height="4" rx="1" ry="1" width="4" x="188.2000000000001" y="46.699999999999996"><title>2024-08-24 59.5 mins</title></rect><rect fill="#abe7ad" height="4" rx="1" ry="1" width="4" x="188.2000000000001" y="52.1"><title>2024-08-25 3.78 mins</title></rect><rect fill="#66be6b" height="4" rx="1" ry="1" width="4" x="193.6000000000001" y="19.7"><title>2024-08-26 59.98 mins</title></rect><rect fill="#a8e5aa" height="4" rx="1" ry="1" width="4" x="193.6000000000001" y="25.1"><title>2024-08-27 18.38 mins</title></rect><rect fill="#a6e4a8" height="4" rx="1" ry="1" width="4" x="193.6000000000001" y="30.5"><title>2024-08-28 32.33 mins</title></rect><rect fill="#549F57" height="4" rx="1" ry="1" width="4" x="193.6000000000001" y="35.9"><title>2024-08-29 89.87 mins</title></rect><rect fill="#a8e5aa" height="4" rx="1" ry="1" width="4" x="193.6000000000001" y="41.300000000000004"><title>2024-08-30 21.13 mins</title></rect><rect fill="#549F57" height="4" rx="1" ry="1" width="4" x="193.6000000000001" y="46.699999999999996"><title>2024-08-31 321.03 mins</title></rect><rect fill="#549F57" height="4" rx="1" ry="1" width="4" x="193.6000000000001" y="52.1"><title>2024-09-01 89.88 mins</title></rect><text fill="#000000" style="font-size:2.5px; font-family:Arial" x="199.0000000000001" y="18.3">Sep</text><rect fill="#65bd6a" height="4" rx="1" ry="1" width="4" x="199.0000000000001" y="19.7"><title>2024-09-02 72.75 mins</title></rect><rect fill="#a4e3a6" height="4" rx="1" ry="1" width="4" x="199.0000000000001" y="25.1"><title>2024-09-03 40.23 mins</title></rect><rect fill="#549F57" height="4" rx="1" ry="1" width="4" x="199.0000000000001" y="30.5"><title>2024-09-04 90.23 mins</title></rect><rect fill="#66be6a" height="4" rx="1" ry="1" width="4" x="199.0000000000001" y="35.9"><title>2024-09-05 67.03 mins</title></rect><rect fill="#a4e3a6" height="4" rx="1" ry="1" width="4" x="199.0000000000001" y="41.300000000000004"><title>2024-09-06 41.07 mins</title></rect><rect fill="#a9e6ab" height="4" rx="1" ry="1" width="4" x="199.0000000000001" y="46.699999999999996"><title>2024-09-07 16.2 mins</title></rect><rect fill="#549F57" height="4" rx="1" ry="1" width="4" x="199.0000000000001" y="52.1"><title>2024-09-08 124.97 mins</title></rect><rect fill="#549F57" height="4" rx="1" ry="1" width="4" x="204.40000000000012" y="19.7"><title>2024-09-09 126.95 mins</title></rect><rect fill="#65bd6a" height="4" rx="1" ry="1" width="4" x="204.40000000000012" y="25.1"><title>2024-09-10 71.97 mins</title></rect><rect fill="#65bd6a" height="4" rx="1" ry="1" width="4" x="204.40000000000012" y="30.5"><title>2024-09-11 83.15 mins</title></rect><rect fill="#a7e5a9" height="4" rx="1" ry="1" width="4" x="204.40000000000012" y="35.9"><title>2024-09-12 26.12 mins</title></rect><rect fill="#66be6b" height="4" rx="1" ry="1" width="4" x="204.40000000000012" y="41.300000000000004"><title>2024-09-13 53.67 mins</title></rect><rect fill="#a5e4a7" height="4" rx="1" ry="1" width="4" x="204.40000000000012" y="46.699999999999996"><title>2024-09-14 36.07 mins</title></rect><rect fill="#ace7ae" height="4" rx="1" ry="1" width="4" x="204.40000000000012" y="52.1"><title>2024-09-15 0.22 mins</title></rect><rect fill="#aae6ac" height="4" rx="1" ry="1" width="4" x="209.80000000000013" y="19.7"><title>2024-09-16 9.37 mins</title></rect><rect fill="#a9e6ab" height="4" rx="1" ry="1" width="4" x="209.80000000000013" y="25.1"><title>2024-09-17 12.73 mins</title></rect><rect fill="#66be6b" height="4" rx="1" ry="1" width="4" x="209.80000000000013" y="30.5"><title>2024-09-18 53.13 mins</title></rect><rect fill="#66be6a" height="4" rx="1" ry="1" width="4" x="209.80000000000013" y="35.9"><title>2024-09-19 67.72 mins</title></rect><rect fill="#a9e6ab" height="4" rx="1" ry="1" width="4" x="209.80000000000013" y="41.300000000000004"><title>2024-09-20 16.68 mins</title></rect><rect fill="#65bd6a" height="4" rx="1" ry="1" width="4" x="209.80000000000013" y="46.699999999999996"><title>2024-09-21 79.73 mins</title></rect><rect fill="#a9e6ab" height="4" rx="1" ry="1" width="4" x="209.80000000000013" y="52.1"><title>2024-09-22 15.63 mins</title></rect><rect fill="#67bf6c" height="4" rx="1" ry="1" width="4" x="215.20000000000013" y="19.7"><title>2024-09-23 45.95 mins</title></rect><rect fill="#66be6b" height="4" rx="1" ry="1" width="4" x="215.20000000000013" y="25.1"><title>2024-09-24 57.48 mins</title></rect><rect fill="#a4e3a6" height="4" rx="1" ry="1" width="4" x="215.20000000000013" y="30.5"><title>2024-09-25 39.53 mins</title></rect><rect fill="#66be6b" height="4" rx="1" ry="1" width="4" x="215.20000000000013" y="35.9"><title>2024-09-26 52.7 mins</title></rect><rect fill="#a5e4a7" height="4" rx="1" ry="1" width="4" x="215.20000000000013" y="41.300000000000004"><title>2024-09-27 35.65 mins</title></rect><rect fill="#66be6b" height="4" rx="1" ry="1" width="4" x="215.20000000000013" y="46.699999999999996"><title>2024-09-28 62.03 mins</title></rect><rect fill="#ace7ae" height="4" rx="1" ry="1" width="4" x="215.20000000000013" y="52.1"><title>2024-09-29 0.03 mins</title></rect><rect fill="#aae6ac" height="4" rx="1" ry="1" width="4" x="220.60000000000014" y="19.7"><title>2024-09-30 11.3 mins</title></rect><rect fill="#EBEDF0" height="4" rx="1" ry="1" width="4" x="220.60000000000014" y="25.1"><title>2024-10-01</title></rect><rect fill="#549F57" height="4" rx="1" ry="1" width="4" x="220.60000000000014" y="30.5"><title>2024-10-02 115.5 mins</title></rect><rect fill="#ace7ae" height="4" rx="1" ry="1" width="4" x="220.60000000000014" y="35.9"><title>2024-10-03 0.17 mins</title></rect><rect fill="#549F57" height="4" rx="1" ry="1" width="4" x="220.60000000000014" y="41.300000000000004"><title>2024-10-04 152.4 mins</title></rect><rect fill="#abe7ad" height="4" rx="1" ry="1" width="4" x="220.60000000000014" y="46.699999999999996"><title>2024-10-05 2.62 mins</title></rect><rect fill="#a8e5aa" height="4" rx="1" ry="1" width="4" x="220.60000000000014" y="52.1"><title>2024-10-06 19.98 mins</title></rect><text fill="#000000" style="font-size:2.5px; font-family:Arial" x="226.00000000000014" y="18.3">Oct</text><rect fill="#549F57" height="4" rx="1" ry="1" width="4" x="226.00000000000014" y="19.7"><title>2024-10-07 211.4 mins</title></rect><rect fill="#67be6b" height="4" rx="1" ry="1" width="4" x="226.00000000000014" y="25.1"><title>2024-10-08 50.1 mins</title></rect><rect fill="#67bf6b" height="4" rx="1" ry="1" width="4" x="226.00000000000014" y="30.5"><title>2024-10-09 48.32 mins</title></rect><rect fill="#65bd6a" height="4" rx="1" ry="1" width="4" x="226.00000000000014" y="35.9"><title>2024-10-10 83.07 mins</title></rect><rect fill="#66be6b" height="4" rx="1" ry="1" width="4" x="226.00000000000014" y="41.300000000000004"><title>2024-10-11 62.3 mins</title></rect><rect fill="#549F57" height="4" rx="1" ry="1" width="4" x="226.00000000000014" y="46.699999999999996"><title>2024-10-12 141.2 mins</title></rect><rect fill="#ace7ae" height="4" rx="1" ry="1" width="4" x="226.00000000000014" y="52.1"><title>2024-10-13 1.83 mins</title></rect><rect fill="#a4e3a6" height="4" rx="1" ry="1" width="4" x="231.40000000000015" y="19.7"><title>2024-10-14 41.57 mins</title></rect><rect fill="#ace7ae" height="4" rx="1" ry="1" width="4" x="231.40000000000015" y="25.1"><title>2024-10-15 1.98 mins</title></rect><rect fill="#a4e3a6" height="4" rx="1" ry="1" width="4" x="231.40000000000015" y="30.5"><title>2024-10-16 40.0 mins</title></rect><rect fill="#a6e4a8" height="4" rx="1" ry="1" width="4" x="231.40000000000015" y="35.9"><title>2024-10-17 30.73 mins</title></rect><rect fill="#a8e5aa" height="4" rx="1" ry="1" width="4" x="231.40000000000015" y="41.300000000000004"><title>2024-10-18 20.7 mins</title></rect><rect fill="#abe7ad" height="4" rx="1" ry="1" width="4" x="231.40000000000015" y="46.699999999999996"><title>2024-10-19 3.3 mins</title></rect><rect fill="#549F57" height="4" rx="1" ry="1" width="4" x="231.40000000000015" y="52.1"><title>2024-10-20 142.9 mins</title></rect><rect fill="#67bf6c" height="4" rx="1" ry="1" width="4" x="236.80000000000015" y="19.7"><title>2024-10-21 44.03 mins</title></rect><rect fill="#a4e3a6" height="4" rx="1" ry="1" width="4" x="236.80000000000015" y="25.1"><title>2024-10-22 40.62 mins</title></rect><rect fill="#a4e3a6" height="4" rx="1" ry="1" width="4" x="236.80000000000015" y="30.5"><title>2024-10-23 42.42 mins</title></rect><rect fill="#67bf6b" height="4" rx="1" ry="1" width="4" x="236.80000000000015" y="35.9"><title>2024-10-24 47.93 mins</title></rect><rect fill="#aae6ac" height="4" rx="1" ry="1" width="4" x="236.80000000000015" y="41.300000000000004"><title>2024-10-25 9.7 mins</title></rect><rect fill="#66be6b" height="4" rx="1" ry="1" width="4" x="236.80000000000015" y="46.699999999999996"><title>2024-10-26 58.03 mins</title></rect><rect fill="#abe7ad" height="4" rx="1" ry="1" width="4" x="236.80000000000015" y="52.1"><title>2024-10-27 3.8 mins</title></rect><rect fill="#66be6b" height="4" rx="1" ry="1" width="4" x="242.20000000000016" y="19.7"><title>2024-10-28 52.55 mins</title></rect><rect fill="#65bd6a" height="4" rx="1" ry="1" width="4" x="242.20000000000016" y="25.1"><title>2024-10-29 71.12 mins</title></rect><rect fill="#a4e3a6" height="4" rx="1" ry="1" width="4" x="242.20000000000016" y="30.5"><title>2024-10-30 40.13 mins</title></rect><rect fill="#67bf6c" height="4" rx="1" ry="1" width="4" x="242.20000000000016" y="35.9"><title>2024-10-31 43.98 mins</title></rect><rect fill="#a7e5a9" height="4" rx="1" ry="1" width="4" x="242.20000000000016" y="41.300000000000004"><title>2024-11-01 26.32 mins</title></rect><rect fill="#66be6b" height="4" rx="1" ry="1" width="4" x="242.20000000000016" y="46.699999999999996"><title>2024-11-02 64.28 mins</title></rect><rect fill="#66be6b" height="4" rx="1" ry="1" width="4" x="242.20000000000016" y="52.1"><title>2024-11-03 61.38 mins</title></rect><text fill="#000000" style="font-size:2.5px; font-family:Arial" x="247.60000000000016" y="18.3">Nov</text><rect fill="#a6e4a8" height="4" rx="1" ry="1" width="4" x="247.60000000000016" y="19.7"><title>2024-11-04 31.95 mins</title></rect><rect fill="#a5e4a7" height="4" rx="1" ry="1" width="4" x="247.60000000000016" y="25.1"><title>2024-11-05 34.18 mins</title></rect><rect fill="#67bf6c" height="4" rx="1" ry="1" width="4" x="247.60000000000016" y="30.5"><title>2024-11-06 45.1 mins</title></rect><rect fill="#a7e5a9" height="4" rx="1" ry="1" width="4" x="247.60000000000016" y="35.9"><title>2024-11-07 25.4 mins</title></rect><rect fill="#a9e6ab" height="4" rx="1" ry="1" width="4" x="247.60000000000016" y="41.300000000000004"><title>2024-11-08 13.85 mins</title></rect><rect fill="#67bf6c" height="4" rx="1" ry="1" width="4" x="247.60000000000016" y="46.699999999999996"><title>2024-11-09 43.43 mins</title></rect><rect fill="#a9e6ab" height="4" rx="1" ry="1" width="4" x="247.60000000000016" y="52.1"><title>2024-11-10 16.27 mins</title></rect><rect fill="#a6e4a8" height="4" rx="1" ry="1" width="4" x="253.00000000000017" y="19.7"><title>2024-11-11 31.02 mins</title></rect><rect fill="#66be6b" height="4" rx="1" ry="1" width="4" x="253.00000000000017" y="25.1"><title>2024-11-12 60.73 mins</title></rect><rect fill="#67bf6c" height="4" rx="1" ry="1" width="4" x="253.00000000000017" y="30.5"><title>2024-11-13 44.93 mins</title></rect><rect fill="#a8e5aa" height="4" rx="1" ry="1" width="4" x="253.00000000000017" y="35.9"><title>2024-11-14 21.77 mins</title></rect><rect fill="#a7e5a9" height="4" rx="1" ry="1" width="4" x="253.00000000000017" y="41.300000000000004"><title>2024-11-15 25.83 mins</title></rect><rect fill="#a4e3a6" height="4" rx="1" ry="1" width="4" x="253.00000000000017" y="46.699999999999996"><title>2024-11-16 41.25 mins</title></rect><rect fill="#66be6b" height="4" rx="1" ry="1" width="4" x="253.00000000000017" y="52.1"><title>2024-11-17 52.73 mins</title></rect><rect fill="#549F57" height="4" rx="1" ry="1" width="4" x="258.40000000000015" y="19.7"><title>2024-11-18 171.22 mins</title></rect><rect fill="#549F57" height="4" rx="1" ry="1" width="4" x="258.40000000000015" y="25.1"><title>2024-11-19 175.97 mins</title></rect><rect fill="#549F57" height="4" rx="1" ry="1" width="4" x="258.40000000000015" y="30.5"><title>2024-11-20 97.37 mins</title></rect><rect fill="#a6e4a8" height="4" rx="1" ry="1" width="4" x="258.40000000000015" y="35.9"><title>2024-11-21 30.7 mins</title></rect><rect fill="#66be6b" height="4" rx="1" ry="1" width="4" x="258.40000000000015" y="41.300000000000004"><title>2024-11-22 66.45 mins</title></rect><rect fill="#549F57" height="4" rx="1" ry="1" width="4" x="258.40000000000015" y="46.699999999999996"><title>2024-11-23 163.35 mins</title></rect><rect fill="#67bf6c" height="4" rx="1" ry="1" width="4" x="258.40000000000015" y="52.1"><title>2024-11-24 43.4 mins</title></rect><rect fill="#a6e5a9" height="4" rx="1" ry="1" width="4" x="263.8000000000001" y="19.7"><title>2024-11-25 27.57 mins</title></rect><rect fill="#a8e5aa" height="4" rx="1" ry="1" width="4" x="263.8000000000001" y="25.1"><title>2024-11-26 19.42 mins</title></rect><rect fill="#a5e4a7" height="4" rx="1" ry="1" width="4" x="263.8000000000001" y="30.5"><title>2024-11-27 35.15 mins</title></rect><rect fill="#a8e5aa" height="4" rx="1" ry="1" width="4" x="263.8000000000001" y="35.9"><title>2024-11-28 20.88 mins</title></rect><rect fill="#a5e4a7" height="4" rx="1" ry="1" width="4" x="263.8000000000001" y="41.300000000000004"><title>2024-11-29 34.65 mins</title></rect><rect fill="#ace7ae" height="4" rx="1" ry="1" width="4" x="263.8000000000001" y="46.699999999999996"><title>2024-11-30 0.1 mins</title></rect><rect fill="#ace7ae" height="4" rx="1" ry="1" width="4" x="263.8000000000001" y="52.1"><title>2024-12-01 0.03 mins</title></rect><text fill="#000000" style="font-size:2.5px; font-family:Arial" x="269.2000000000001" y="18.3">Dec</text><rect fill="#66be6b" height="4" rx="1" ry="1" width="4" x="269.2000000000001" y="19.7"><title>2024-12-02 54.9 mins</title></rect><rect fill="#a9e6ab" height="4" rx="1" ry="1" width="4" x="269.2000000000001" y="25.1"><title>2024-12-03 16.42 mins</title></rect><rect fill="#a9e6ab" height="4" rx="1" ry="1" width="4" x="269.2000000000001" y="30.5"><title>2024-12-04 15.15 mins</title></rect><rect fill="#a8e5aa" height="4" rx="1" ry="1" width="4" x="269.2000000000001" y="35.9"><title>2024-12-05 22.23 mins</title></rect><rect fill="#EBEDF0" height="4" rx="1" ry="1" width="4" x="269.2000000000001" y="41.300000000000004"><title>2024-12-06</title></rect><rect fill="#EBEDF0" height="4" rx="1" ry="1" width="4" x="269.2000000000001" y="46.699999999999996"><title>2024-12-07</title></rect><rect fill="#EBEDF0" height="4" rx="1" ry="1" width="4" x="269.2000000000001" y="52.1"><title>2024-12-08</title></rect><rect fill="#EBEDF0" height="4" rx="1" ry="1" width="4" x="274.6000000000001" y="19.7"><title>2024-12-09</title></rect><rect fill="#EBEDF0" height="4" rx="1" ry="1" width="4" x="274.6000000000001" y="25.1"><title>2024-12-10</title></rect><rect fill="#EBEDF0" height="4" rx="1" ry="1" width="4" x="274.6000000000001" y="30.5"><title>2024-12-11</title></rect><rect fill="#EBEDF0" height="4" rx="1" ry="1" width="4" x="274.6000000000001" y="35.9"><title>2024-12-12</title></rect><rect fill="#EBEDF0" height="4" rx="1" ry="1" width="4" x="274.6000000000001" y="41.300000000000004"><title>2024-12-13</title></rect><rect fill="#EBEDF0" height="4" rx="1" ry="1" width="4" x="274.6000000000001" y="46.699999999999996"><title>2024-12-14</title></rect><rect fill="#EBEDF0" height="4" rx="1" ry="1" width="4" x="274.6000000000001" y="52.1"><title>2024-12-15</title></rect><rect fill="#EBEDF0" height="4" rx="1" ry="1" width="4" x="280.00000000000006" y="19.7"><title>2024-12-16</title></rect><rect fill="#EBEDF0" height="4" rx="1" ry="1" width="4" x="280.00000000000006" y="25.1"><title>2024-12-17</title></rect><rect fill="#EBEDF0" height="4" rx="1" ry="1" width="4" x="280.00000000000006" y="30.5"><title>2024-12-18</title></rect><rect fill="#EBEDF0" height="4" rx="1" ry="1" width="4" x="280.00000000000006" y="35.9"><title>2024-12-19</title></rect><rect fill="#EBEDF0" height="4" rx="1" ry="1" width="4" x="280.00000000000006" y="41.300000000000004"><title>2024-12-20</title></rect><rect fill="#EBEDF0" height="4" rx="1" ry="1" width="4" x="280.00000000000006" y="46.699999999999996"><title>2024-12-21</title></rect><rect fill="#EBEDF0" height="4" rx="1" ry="1" width="4" x="280.00000000000006" y="52.1"><title>2024-12-22</title></rect><rect fill="#EBEDF0" height="4" rx="1" ry="1" width="4" x="285.40000000000003" y="19.7"><title>2024-12-23</title></rect><rect fill="#EBEDF0" height="4" rx="1" ry="1" width="4" x="285.40000000000003" y="25.1"><title>2024-12-24</title></rect><rect fill="#EBEDF0" height="4" rx="1" ry="1" width="4" x="285.40000000000003" y="30.5"><title>2024-12-25</title></rect><rect fill="#EBEDF0" height="4" rx="1" ry="1" width="4" x="285.40000000000003" y="35.9"><title>2024-12-26</title></rect><rect fill="#EBEDF0" height="4" rx="1" ry="1" width="4" x="285.40000000000003" y="41.300000000000004"><title>2024-12-27</title></rect><rect fill="#EBEDF0" height="4" rx="1" ry="1" width="4" x="285.40000000000003" y="46.699999999999996"><title>2024-12-28</title></rect><rect fill="#EBEDF0" height="4" rx="1" ry="1" width="4" x="285.40000000000003" y="52.1"><title>2024-12-29</title></rect><rect fill="#EBEDF0" height="4" rx="1" ry="1" width="4" x="290.8" y="19.7"><title>2024-12-30</title></rect><rect fill="#EBEDF0" height="4" rx="1" ry="1" width="4" x="290.8" y="25.1"><title>2024-12-31</title></rect></svg>